<svg width="32" height="27" viewBox="0 0 32 27" fill="none" xmlns="http://www.w3.org/2000/svg">
<g filter="url(#filter0_dd)">
<g clip-path="url(#clip0)">
<path fill-rule="evenodd" clip-rule="evenodd" d="M25.3624 14.7577C25.3624 14.7577 27.3028 16.6741 27.7828 17.5609C27.7921 17.5736 27.7994 17.5878 27.8044 17.6029C28 17.9305 28.048 18.1873 27.952 18.3769C27.79 18.6901 27.2416 18.8473 27.0556 18.8605H23.626C23.3872 18.8605 22.8904 18.7981 22.2856 18.3805C21.8236 18.0577 21.364 17.5261 20.9188 17.0065C20.254 16.2349 19.6792 15.5653 19.0972 15.5653C19.0237 15.5651 18.9507 15.5773 18.8812 15.6013C18.4408 15.7405 17.8816 16.3681 17.8816 18.0397C17.8816 18.5629 17.4688 18.8605 17.1796 18.8605H15.6088C15.0736 18.8605 12.2872 18.6733 9.81639 16.0681C6.78879 12.8785 4.06959 6.48005 4.04319 6.42365C3.87399 6.00965 4.22919 5.78405 4.61319 5.78405H8.07639C8.54079 5.78405 8.69199 6.06485 8.79759 6.31685C8.91999 6.60605 9.37359 7.76285 10.1176 9.06245C11.3224 11.1768 12.0628 12.0373 12.6544 12.0373C12.7655 12.0376 12.8748 12.0086 12.9712 11.9533C13.744 11.5285 13.6 8.76845 13.564 8.19965C13.564 8.08925 13.5628 6.96725 13.1668 6.42485C12.8836 6.03605 12.4012 5.88485 12.1096 5.82965C12.1876 5.71685 12.3532 5.54405 12.5656 5.44205C13.0948 5.17805 14.0512 5.13965 15.0004 5.13965H15.5272C16.5568 5.15405 16.8232 5.22005 17.1976 5.31485C17.9512 5.49485 17.9656 5.98325 17.8996 7.64645C17.8804 8.12165 17.86 8.65685 17.86 9.28685C17.86 9.42125 17.854 9.57125 17.854 9.72365C17.8312 10.5768 17.8012 11.5381 18.4036 11.9329C18.4817 11.9815 18.5719 12.0073 18.664 12.0072C18.8728 12.0072 19.498 12.0072 21.1936 9.09725C21.9376 7.81205 22.5136 6.29645 22.5532 6.18245C22.5868 6.11885 22.6876 5.94005 22.81 5.86805C22.8971 5.82172 22.9946 5.79858 23.0932 5.80085H27.1672C27.6112 5.80085 27.9124 5.86805 27.9712 6.03605C28.0696 6.30845 27.952 7.14005 26.092 9.65525C25.7788 10.074 25.504 10.4365 25.2628 10.7533C23.5768 12.9661 23.5768 13.0777 25.3624 14.7577Z" fill="white"/>
</g>
</g>
<defs>
<filter id="filter0_dd" x="0" y="0" width="32" height="32" filterUnits="userSpaceOnUse" color-interpolation-filters="sRGB">
<feFlood flood-opacity="0" result="BackgroundImageFix"/>
<feColorMatrix in="SourceAlpha" type="matrix" values="0 0 0 0 0 0 0 0 0 0 0 0 0 0 0 0 0 0 127 0" result="hardAlpha"/>
<feOffset dy="4"/>
<feGaussianBlur stdDeviation="2"/>
<feComposite in2="hardAlpha" operator="out"/>
<feColorMatrix type="matrix" values="0 0 0 0 0 0 0 0 0 0 0 0 0 0 0 0 0 0 0.25 0"/>
<feBlend mode="normal" in2="BackgroundImageFix" result="effect1_dropShadow"/>
<feColorMatrix in="SourceAlpha" type="matrix" values="0 0 0 0 0 0 0 0 0 0 0 0 0 0 0 0 0 0 127 0" result="hardAlpha"/>
<feOffset dy="4"/>
<feGaussianBlur stdDeviation="2"/>
<feComposite in2="hardAlpha" operator="out"/>
<feColorMatrix type="matrix" values="0 0 0 0 0 0 0 0 0 0 0 0 0 0 0 0 0 0 0.25 0"/>
<feBlend mode="normal" in2="effect1_dropShadow" result="effect2_dropShadow"/>
<feBlend mode="normal" in="SourceGraphic" in2="effect2_dropShadow" result="shape"/>
</filter>
<clipPath id="clip0">
<rect x="4" width="24" height="24" fill="white"/>
</clipPath>
</defs>
</svg>
