<svg width="26" height="26" viewBox="0 0 26 26" fill="none" xmlns="http://www.w3.org/2000/svg">
<g clip-path="url(#clip0_3014:34)">
<path fill-rule="evenodd" clip-rule="evenodd" d="M23.1426 15.9874C23.1426 15.9874 25.2447 18.0635 25.7647 19.0242C25.7748 19.038 25.7827 19.0534 25.7881 19.0697C26 19.4246 26.052 19.7028 25.948 19.9082C25.7725 20.2475 25.1784 20.4178 24.9769 20.4321H21.2615C21.0028 20.4321 20.4646 20.3645 19.8094 19.9121C19.3089 19.5624 18.811 18.9865 18.3287 18.4236C17.6085 17.5877 16.9858 16.8623 16.3553 16.8623C16.2757 16.8621 16.1966 16.8753 16.1213 16.9013C15.6442 17.0521 15.0384 17.732 15.0384 19.5429C15.0384 20.1097 14.5912 20.4321 14.2779 20.4321H12.5762C11.9964 20.4321 8.97779 20.2293 6.3011 17.407C3.0212 13.9516 0.075395 7.01997 0.046795 6.95887C-0.136505 6.51037 0.248295 6.26597 0.664295 6.26597H4.4161C4.91919 6.26597 5.08299 6.57017 5.19739 6.84317C5.32999 7.15647 5.82139 8.40967 6.62739 9.81757C7.93259 12.1082 8.73469 13.0403 9.37559 13.0403C9.496 13.0406 9.61438 13.0092 9.71879 12.9493C10.556 12.4891 10.4 9.49907 10.361 8.88287C10.361 8.76327 10.3597 7.54777 9.93069 6.96017C9.62389 6.53897 9.10129 6.37517 8.78539 6.31537C8.86989 6.19317 9.04929 6.00597 9.27939 5.89547C9.85269 5.60947 10.8888 5.56787 11.9171 5.56787H12.4878C13.6032 5.58347 13.8918 5.65497 14.2974 5.75767C15.1138 5.95267 15.1294 6.48177 15.0579 8.28357C15.0371 8.79837 15.015 9.37817 15.015 10.0607C15.015 10.2063 15.0085 10.3688 15.0085 10.5339C14.9838 11.4582 14.9513 12.4995 15.6039 12.9272C15.6885 12.9799 15.7863 13.0078 15.886 13.0078C16.1122 13.0078 16.7895 13.0078 18.6264 9.85527C19.4324 8.46297 20.0564 6.82107 20.0993 6.69757C20.1357 6.62867 20.2449 6.43497 20.3775 6.35697C20.4718 6.30678 20.5775 6.28171 20.6843 6.28417H25.0978C25.5788 6.28417 25.9051 6.35697 25.9688 6.53897C26.0754 6.83407 25.948 7.73497 23.933 10.4598C23.5937 10.9135 23.296 11.3061 23.0347 11.6493C21.2082 14.0465 21.2082 14.1674 23.1426 15.9874V15.9874Z" fill="white"/>
</g>
<defs>
<clipPath id="clip0_3014:34">
<rect width="26" height="26" fill="white"/>
</clipPath>
</defs>
</svg>
